PathFileType        4      (X/Y/Z)      C:\Users\mrr\Desktop\moco_PFJCF\transformed_exp_static.trc         
DataRate	CameraRate	NumFrames	NumMarkers	Units	OrigDataRate	OrigDataStartFrame	OrigNumFrames
200.0	200.0	4	64	mm	200.0	408	652
Frame#	Time	R.Shoulder			L.Shoulder			R.Clavicle			L.Clavicle			R.Biceps			R.Elbow			R.MElbow			R.Forearm			R.Wrist			L.Biceps			L.Elbow			L.MElbow			L.Forearm			L.Wrist			R.ASIS			L.ASIS			R.PSIS			S2			L.PSIS			R.TH1			R.TH2			R.TH3			R.Knee			R.MKnee			R.SH1			R.SH2			R.SH3			R.SH4			R.Ankle			R.MAnkle			R.Heel			R.MT5			R.Toe			L.TH1			L.TH2			L.TH3			L.TH4			L.Knee			L.MKnee			L.SH1			L.SH2			L.SH3			L.Ankle			L.MAnkle			L.Heel			L.MT5			L.Toe			R_HJC			L_HJC			L.HeelGround			L.ToeGround			L.MT5Ground			L.AnkleJoint			L.AnkleJointGround			L.KneeJoint			R.HeelGround			R.ToeGround			R.MT5Ground			R.AnkleJoint			R.AnkleJointGround			R.KneeJoint			MidASIS			MidPSIS			MidClavicle			
		X1	Y1	Z1	X2	Y2	Z2	X3	Y3	Z3	X4	Y4	Z4	X5	Y5	Z5	X6	Y6	Z6	X7	Y7	Z7	X8	Y8	Z8	X9	Y9	Z9	X10	Y10	Z10	X11	Y11	Z11	X12	Y12	Z12	X13	Y13	Z13	X14	Y14	Z14	X15	Y15	Z15	X16	Y16	Z16	X17	Y17	Z17	X18	Y18	Z18	X19	Y19	Z19	X20	Y20	Z20	X21	Y21	Z21	X22	Y22	Z22	X23	Y23	Z23	X24	Y24	Z24	X25	Y25	Z25	X26	Y26	Z26	X27	Y27	Z27	X28	Y28	Z28	X29	Y29	Z29	X30	Y30	Z30	X31	Y31	Z31	X32	Y32	Z32	X33	Y33	Z33	X34	Y34	Z34	X35	Y35	Z35	X36	Y36	Z36	X37	Y37	Z37	X38	Y38	Z38	X39	Y39	Z39	X40	Y40	Z40	X41	Y41	Z41	X42	Y42	Z42	X43	Y43	Z43	X44	Y44	Z44	X45	Y45	Z45	X46	Y46	Z46	X47	Y47	Z47	X48	Y48	Z48	X49	Y49	Z49	X50	Y50	Z50	X51	Y51	Z51	X52	Y52	Z52	X53	Y53	Z53	X54	Y54	Z54	X55	Y55	Z55	X56	Y56	Z56	X57	Y57	Z57	X58	Y58	Z58	X59	Y59	Z59	X60	Y60	Z60	X61	Y61	Z61	X62	Y62	Z62	X63	Y63	Z63	X64	Y64	Z64	
408	2.035	-263.241	1369.835	-409.687	-261.3929999999999	1387.78	-739.996	-216.35099999999997	1345.04	-556.708	-212.18899999999996	1347.564	-595.208	-199.69899999999998	1190.493	-348.273	-77.76799999999999	1128.386	-299.365	-93.81499999999997	1099.291	-352.886	31.27000000000002	1128.201	-362.841	154.26200000000003	1140.584	-323.709	-158.81599999999995	1241.02	-811.502	-91.22399999999995	1133.95	-843.275	-102.09699999999995	1111.0	-778.799	0.7830000000000512	1101.892	-835.882	138.62600000000006	1159.042	-821.05	-135.68399999999997	960.159	-439.313	-140.07899999999995	959.004	-705.823	-313.10799999999995	952.19	-522.248	-316.2939999999999	941.053	-563.565	-320.19399999999996	959.938	-613.149	-185.67499999999998	732.835	-368.526	-276.492	722.75	-421.34	-280.789	593.34	-413.058	-241.71699999999998	481.787	-378.888	-198.43399999999997	462.891	-493.165	-229.75899999999996	403.915	-357.312	-249.39799999999997	302.329	-318.24	-307.635	404.812	-383.586	-322.896	287.675	-356.266	-269.894	98.826	-318.031	-249.07099999999997	104.38	-397.143	-328.836	56.48	-361.189	-163.96599999999998	42.322	-275.798	-111.57099999999998	65.471	-334.245	-171.50199999999995	781.443	-760.876	-174.66099999999994	648.274	-748.316	-276.63899999999995	794.798	-751.687	-289.44999999999993	660.25	-726.458	-249.28299999999993	495.492	-742.717	-236.88599999999997	474.147	-618.708	-218.25999999999993	401.027	-739.746	-311.51599999999996	416.391	-745.966	-320.90399999999994	301.082	-767.77	-282.94399999999996	104.496	-771.097	-268.73199999999997	101.313	-693.076	-346.70099999999996	53.458	-723.492	-180.23699999999994	45.051	-805.303	-127.34399999999995	65.433	-748.745	-180.87899999999996	855.188	-470.583	-195.96499999999997	865.818	-670.585	-346.70099999999996	0.0	-723.492	-127.34399999999995	0.0	-748.745	-180.23699999999994	0.0	-805.303	-275.83799999999997	102.9045	-732.0865	-275.83799999999997	0.0	-732.0865	-243.08449999999996	484.8195	-680.7125	-328.836	0.0	-361.189	-111.57099999999998	0.0	-334.245	-163.96599999999998	0.0	-275.798	-259.4825	101.603	-357.587	-259.4825	0.0	-357.587	-220.07549999999998	472.339	-436.0265	-137.8815	959.5815	-572.568	-316.65099999999995	956.0640000000001	-567.6985	-214.26999999999995	1346.3020000000001	-575.958	
409	2.04	-263.351	1369.664	-409.687	-261.36799999999994	1387.659	-740.112	-216.27599999999998	1344.99	-556.628	-212.17699999999996	1347.587	-595.188	-199.76099999999997	1190.417	-348.221	-77.74899999999998	1128.284	-299.331	-94.00099999999998	1098.963	-352.958	31.140000000000022	1128.281	-362.792	154.21300000000002	1140.6	-323.797	-158.84299999999993	1241.055	-811.559	-91.20799999999994	1133.898	-843.247	-102.08299999999996	1110.992	-778.792	0.8140000000000511	1101.803	-835.865	138.72800000000007	1158.905	-820.895	-135.65499999999997	960.219	-439.334	-140.02599999999995	959.027	-705.805	-313.1669999999999	952.384	-522.177	-315.94399999999996	940.629	-563.549	-320.28399999999993	960.158	-613.193	-185.67299999999997	732.884	-368.583	-276.54	722.788	-421.625	-280.717	593.551	-412.946	-241.75199999999998	481.775	-379.065	-198.50099999999998	462.63	-493.239	-229.63099999999997	403.971	-357.243	-249.39799999999997	302.362	-318.301	-307.671	404.788	-383.507	-322.849	287.731	-356.119	-270.008	98.592	-318.055	-249.07899999999998	104.111	-397.144	-328.834	56.255	-361.046	-163.94099999999997	42.361	-275.633	-111.74799999999999	65.253	-334.303	-171.45099999999994	781.398	-760.839	-174.66599999999994	648.274	-748.288	-276.5899999999999	794.81	-751.798	-289.35999999999996	660.285	-726.497	-249.28299999999993	495.762	-743.132	-236.96799999999996	474.219	-618.969	-218.26399999999995	401.009	-739.777	-311.62899999999996	416.376	-746.264	-320.84399999999994	301.278	-768.068	-283.50399999999996	105.288	-771.8	-268.6929999999999	101.391	-693.065	-346.6979999999999	53.408	-723.558	-180.14199999999994	44.817	-805.222	-127.30899999999995	65.302	-748.79	-180.78399999999996	855.231	-470.571	-195.87999999999997	865.844	-670.572	-346.6979999999999	0.0	-723.558	-127.30899999999995	0.0	-748.79	-180.14199999999994	0.0	-805.222	-276.09849999999994	103.3395	-732.4325	-276.09849999999994	0.0	-732.4325	-243.12549999999996	484.9905	-681.0505	-328.834	0.0	-361.046	-111.74799999999999	0.0	-334.303	-163.94099999999997	0.0	-275.633	-259.5435	101.3515	-357.59950000000003	-259.5435	0.0	-357.59950000000003	-220.1265	472.2025	-436.152	-137.8405	959.623	-572.5695	-316.72549999999995	956.271	-567.685	-214.22649999999996	1346.2885	-575.908	
410	2.045	-263.347	1369.578	-409.645	-261.40899999999993	1387.552	-740.255	-216.42999999999998	1344.894	-556.714	-212.26599999999996	1347.54	-595.371	-199.91699999999997	1190.286	-348.374	-77.82299999999998	1128.252	-299.339	-93.87399999999997	1098.674	-353.128	31.09900000000002	1128.229	-362.812	154.12700000000004	1140.583	-323.83	-158.74299999999994	1241.001	-811.645	-91.21299999999994	1133.82	-843.238	-102.09799999999996	1110.966	-778.797	0.8240000000000511	1101.755	-835.82	138.71100000000007	1158.943	-820.983	-135.58999999999997	960.418	-439.248	-139.99799999999993	958.954	-705.822	-313.20199999999994	952.561	-522.135	-315.80199999999996	940.556	-563.851	-320.40299999999996	960.371	-613.383	-185.68699999999998	732.93	-368.634	-276.415	723.122	-421.419	-280.766	593.719	-413.067	-241.79099999999997	481.673	-379.155	-198.53699999999998	462.411	-493.306	-229.54199999999997	403.823	-357.388	-249.38299999999998	302.466	-318.396	-307.59	404.838	-383.363	-322.702	287.891	-356.024	-270.062	98.205	-318.178	-249.11199999999997	103.862	-397.131	-328.893	56.296	-361.737	-163.97099999999998	42.139	-275.818	-111.67599999999999	65.301	-334.165	-171.38999999999993	781.307	-760.997	-174.65399999999994	648.254	-748.329	-276.48599999999993	794.949	-752.267	-289.2939999999999	660.399	-726.725	-249.48399999999995	495.384	-742.649	-237.06199999999998	474.302	-619.231	-218.38299999999995	400.943	-739.868	-311.55899999999997	416.532	-746.293	-320.86299999999994	301.29	-768.143	-283.5439999999999	105.396	-771.879	-268.83199999999994	101.423	-693.532	-346.68799999999993	53.445	-723.712	-180.26299999999995	44.915	-805.408	-127.30599999999995	65.133	-748.846	-180.82599999999996	855.387	-470.541	-195.83599999999998	865.843	-670.557	-346.68799999999993	0.0	-723.712	-127.30599999999995	0.0	-748.846	-180.26299999999995	0.0	-805.408	-276.18799999999993	103.40950000000001	-732.7055	-276.18799999999993	0.0	-732.7055	-243.273	484.843	-680.94	-328.893	0.0	-361.737	-111.67599999999999	0.0	-334.165	-163.97099999999998	0.0	-275.818	-259.587	101.0335	-357.6545	-259.587	0.0	-357.6545	-220.16399999999996	472.04200000000003	-436.2305	-137.79399999999995	959.6859999999999	-572.535	-316.80249999999995	956.466	-567.759	-214.34799999999998	1346.217	-576.0425	
411	2.05	-263.43	1369.7	-409.805	-261.4189999999999	1387.507	-740.423	-216.51399999999998	1344.893	-556.84	-212.24699999999999	1347.581	-595.469	-199.94299999999998	1190.414	-348.39	-77.90699999999998	1128.236	-299.351	-93.81599999999997	1098.563	-353.38	31.047000000000022	1128.174	-362.826	154.06000000000003	1140.628	-323.978	-158.78599999999994	1240.996	-811.715	-91.20699999999994	1133.719	-843.217	-101.70099999999995	1109.188	-777.754	0.8360000000000511	1101.697	-835.841	138.72500000000005	1158.962	-821.065	-135.68699999999998	960.513	-439.607	-139.97699999999995	958.879	-705.837	-313.21599999999995	952.677	-522.189	-315.75999999999993	940.498	-564.152	-320.43699999999995	960.51	-613.441	-185.75199999999998	732.844	-368.897	-276.394	723.255	-421.497	-280.787	593.915	-413.105	-241.79199999999997	481.73	-379.235	-198.52099999999996	462.229	-493.363	-229.48599999999996	403.903	-357.548	-249.27699999999996	302.682	-318.391	-307.564	404.985	-383.381	-322.778	287.949	-356.038	-270.01	98.128	-318.348	-249.12799999999996	103.609	-397.145	-328.905	56.208	-361.926	-164.10299999999998	42.118	-276.02	-111.66099999999999	65.14	-334.557	-171.34699999999995	781.371	-761.252	-174.66899999999995	648.202	-748.377	-276.4529999999999	794.93	-752.339	-289.28599999999994	660.415	-726.809	-249.51299999999995	495.348	-742.703	-237.07999999999998	474.317	-619.267	-218.41699999999994	400.883	-739.931	-311.59799999999996	416.428	-746.375	-320.8829999999999	301.295	-768.233	-283.55899999999997	105.45	-771.916	-268.77599999999995	101.514	-693.668	-346.71399999999994	53.492	-723.955	-180.24199999999993	44.875	-805.577	-127.28099999999996	65.073	-748.922	-180.87399999999997	855.463	-470.646	-195.87099999999998	865.823	-670.668	-346.71399999999994	0.0	-723.955	-127.28099999999996	0.0	-748.922	-180.24199999999993	0.0	-805.577	-276.16749999999996	103.482	-732.792	-276.16749999999996	0.0	-732.792	-243.29649999999998	484.8325	-680.985	-328.905	0.0	-361.926	-111.66099999999999	0.0	-334.557	-164.10299999999998	0.0	-276.02	-259.56899999999996	100.8685	-357.74649999999997	-259.56899999999996	0.0	-357.74649999999997	-220.15649999999997	471.97950000000003	-436.299	-137.83199999999997	959.696	-572.722	-316.82649999999995	956.5935	-567.815	-214.38049999999998	1346.237	-576.1545000000001	
